<svg xmlns="http://www.w3.org/2000/svg" viewBox="0 0 32 32">
  <path d="M4 4L4 7.65625L1 11.65625L1 12C1 13.645 2.355 15 4 15L4 28L28 28L28 15C29.645 15 31 13.645 31 12L31 11.65625L28 7.65625L28 4L4 4 z M 6 6L26 6L26 7L6 7L6 6 z M 5.5 9L26.5 9L28.90625 12.21875C28.79725 12.65175 28.469 13 28 13C27.445 13 27 12.555 27 12L25 12C25 12.555 24.555 13 24 13C23.445 13 23 12.555 23 12L21 12C21 12.555 20.555 13 20 13C19.445 13 19 12.555 19 12L17 12C17 12.555 16.555 13 16 13C15.445 13 15 12.555 15 12L13 12C13 12.555 12.555 13 12 13C11.445 13 11 12.555 11 12L9 12C9 12.555 8.555 13 8 13C7.445 13 7 12.555 7 12L5 12C5 12.555 4.555 13 4 13C3.531 13 3.20275 12.65175 3.09375 12.21875L5.5 9 z M 6 14.21875C6.531 14.69875 7.234 15 8 15C8.766 15 9.469 14.69875 10 14.21875C10.531 14.69875 11.234 15 12 15C12.766 15 13.469 14.69875 14 14.21875C14.531 14.69875 15.234 15 16 15C16.766 15 17.469 14.69875 18 14.21875C18.531 14.69875 19.234 15 20 15C20.766 15 21.469 14.69875 22 14.21875C22.531 14.69875 23.234 15 24 15C24.766 15 25.469 14.69875 26 14.21875L26 21L6 21L6 14.21875 z M 6 23L26 23L26 26L6 26L6 23 z" fill="#FFFFFF" />
</svg>