<svg xmlns="http://www.w3.org/2000/svg" viewBox="0 0 50 50">
  <path d="M25 2C12.309295 2 2 12.309295 2 25C2 37.690705 12.309295 48 25 48C37.690705 48 48 37.690705 48 25C48 12.309295 37.690705 2 25 2 z M 25 4C36.609824 4 46 13.390176 46 25C46 36.609824 36.609824 46 25 46C13.390176 46 4 36.609824 4 25C4 13.390176 13.390176 4 25 4 z M 26.580078 10C23.92822 10 21.917076 10.867217 20.677734 12.400391C19.438393 13.933564 19 15.981046 19 18.226562L19 20L17 20 A 1.0001 1.0001 0 0 0 16 21L16 26 A 1.0001 1.0001 0 0 0 17 27L19 27L19 39 A 1.0001 1.0001 0 0 0 20 40L26 40 A 1.0001 1.0001 0 0 0 27 39L27 27L31 27 A 1.0001 1.0001 0 0 0 31.980469 26.195312L32.980469 21.195312 A 1.0001 1.0001 0 0 0 32 20L27 20L27 17.806641C27 17.321617 27.03137 17.325614 27.171875 17.234375C27.312385 17.143136 27.820197 17 28.710938 17L32 17 A 1.0001 1.0001 0 0 0 33 16L33 12 A 1.0001 1.0001 0 0 0 32.335938 11.058594C32.335938 11.058594 29.456337 10 26.580078 10 z M 26.580078 12C28.472499 12 30.227501 12.510447 31 12.751953L31 15L28.710938 15C27.663677 15 26.813974 15.08458 26.083984 15.558594C25.353995 16.032605 25 16.940664 25 17.806641L25 21 A 1.0001 1.0001 0 0 0 26 22L30.779297 22L30.179688 25L26 25 A 1.0001 1.0001 0 0 0 25 26L25 38L21 38L21 26 A 1.0001 1.0001 0 0 0 20 25L18 25L18 22L20 22 A 1.0001 1.0001 0 0 0 21 21L21 18.226562C21 16.24708 21.405014 14.681779 22.232422 13.658203C23.05983 12.634627 24.336936 12 26.580078 12 z" fill="#FFFFFF" />
</svg>